<svg xmlns="http://www.w3.org/2000/svg" xmlns:xlink="http://www.w3.org/1999/xlink" contentStyleType="text/css" height="1170px" preserveAspectRatio="none" style="width:1283px;height:1170px;background:#FFFFFF;" version="1.1" viewBox="0 0 1283 1170" width="1283px" zoomAndPan="magnify"><defs/><g><!--cluster Person--><g id="cluster_Person"><path d="M214.5,6.602 L263.6878,6.602 A3.75,3.75 0 0 1 266.1878,9.102 L273.1878,31.6699 L756.5,31.6699 A2.5,2.5 0 0 1 759,34.1699 L759,135.512 A2.5,2.5 0 0 1 756.5,138.012 L214.5,138.012 A2.5,2.5 0 0 1 212,135.512 L212,9.102 A2.5,2.5 0 0 1 214.5,6.602 " fill="#90EE90" style="stroke:#000000;stroke-width:1.5;"/><line style="stroke:#000000;stroke-width:1.5;" x1="212" x2="273.1878" y1="31.6699" y2="31.6699"/><text fill="#000000" font-family="sans-serif" font-size="14" font-weight="bold" lengthAdjust="spacing" textLength="48.1878" x="216" y="23.5679">Person</text></g><!--cluster Fall--><g id="cluster_Fall"><path d="M8.5,570.602 L33.9159,570.602 A3.75,3.75 0 0 1 36.4159,573.102 L43.4159,595.6699 L303.5,595.6699 A2.5,2.5 0 0 1 306,598.1699 L306,1034.702 A2.5,2.5 0 0 1 303.5,1037.202 L8.5,1037.202 A2.5,2.5 0 0 1 6,1034.702 L6,573.102 A2.5,2.5 0 0 1 8.5,570.602 " fill="#90EE90" style="stroke:#000000;stroke-width:1.5;"/><line style="stroke:#000000;stroke-width:1.5;" x1="6" x2="43.4159" y1="595.6699" y2="595.6699"/><text fill="#000000" font-family="sans-serif" font-size="14" font-weight="bold" lengthAdjust="spacing" textLength="24.4159" x="10" y="587.5679">Fall</text></g><!--class Patient:in--><g id="elem_Patient:in"><rect codeLine="22" fill="#90EE90" height="61.412" id="Patient:in" rx="2.5" ry="2.5" style="stroke:#000000;stroke-width:0.5;" width="94.6078" x="235.7" y="52.602"/><ellipse cx="250.7" cy="75.308" fill="#ADD1B2" rx="11" ry="11" style="stroke:#181818;stroke-width:1;"/><path d="M250.1688,82.2299 Q248.4188,82.2299 247.2781,81.4955 Q246.1531,80.7455 245.5906,79.4017 Q245.0438,78.0424 245.0438,76.2455 Q245.0438,74.2142 245.7,72.7611 Q246.3563,71.308 247.6375,70.5267 Q248.9188,69.7455 250.7938,69.7455 Q251.6844,69.7455 252.3563,69.933 Q253.0281,70.1049 253.7156,70.4486 L252.9031,72.4642 Q252.2781,72.1517 251.7313,72.0267 Q251.2,71.9017 250.7156,71.9017 Q249.5438,71.9017 248.8406,72.433 Q248.1375,72.9642 247.8406,73.9174 Q247.5438,74.8705 247.5438,76.1361 Q247.5438,78.1517 248.2625,79.1205 Q248.9813,80.0736 250.575,80.0736 Q251.1688,80.0736 251.7938,79.9174 Q252.4188,79.7611 253.2469,79.3861 L253.2469,81.6049 Q252.5125,81.9174 251.7156,82.0736 Q250.9344,82.2299 250.1688,82.2299 Z " fill="#000000"/><text fill="#000000" font-family="sans-serif" font-size="12" font-style="italic" lengthAdjust="spacing" textLength="49.0683" x="271.4697" y="70.4301">&#171;Patient&#187;</text><text fill="#000000" font-family="sans-serif" font-size="14" lengthAdjust="spacing" textLength="62.6078" x="264.7" y="88.912">Patient:in</text><line style="stroke:#000000;stroke-width:0.5;" x1="236.7" x2="329.3078" y1="98.014" y2="98.014"/><line style="stroke:#000000;stroke-width:0.5;" x1="236.7" x2="329.3078" y1="106.014" y2="106.014"/></g><!--class Patient:in - Pseudonymisiert--><g id="elem_Patient:in - Pseudonymisiert"><rect codeLine="23" fill="#90EE90" height="61.412" id="Patient:in - Pseudonymisiert" rx="2.5" ry="2.5" style="stroke:#000000;stroke-width:0.5;" width="216.7433" x="430.63" y="52.602"/><ellipse cx="445.63" cy="75.308" fill="#ADD1B2" rx="11" ry="11" style="stroke:#181818;stroke-width:1;"/><path d="M445.0988,82.2299 Q443.3488,82.2299 442.2081,81.4955 Q441.0831,80.7455 440.5206,79.4017 Q439.9738,78.0424 439.9738,76.2455 Q439.9738,74.2142 440.63,72.7611 Q441.2863,71.308 442.5675,70.5267 Q443.8488,69.7455 445.7238,69.7455 Q446.6144,69.7455 447.2863,69.933 Q447.9581,70.1049 448.6456,70.4486 L447.8331,72.4642 Q447.2081,72.1517 446.6613,72.0267 Q446.13,71.9017 445.6456,71.9017 Q444.4738,71.9017 443.7706,72.433 Q443.0675,72.9642 442.7706,73.9174 Q442.4738,74.8705 442.4738,76.1361 Q442.4738,78.1517 443.1925,79.1205 Q443.9113,80.0736 445.505,80.0736 Q446.0988,80.0736 446.7238,79.9174 Q447.3488,79.7611 448.1769,79.3861 L448.1769,81.6049 Q447.4425,81.9174 446.6456,82.0736 Q445.8644,82.2299 445.0988,82.2299 Z " fill="#000000"/><text fill="#000000" font-family="sans-serif" font-size="12" font-style="italic" lengthAdjust="spacing" textLength="49.0683" x="527.4675" y="70.4301">&#171;Patient&#187;</text><text fill="#000000" font-family="sans-serif" font-size="14" lengthAdjust="spacing" textLength="184.7433" x="459.63" y="88.912">Patient:in - Pseudonymisiert</text><line style="stroke:#000000;stroke-width:0.5;" x1="431.63" x2="646.3733" y1="98.014" y2="98.014"/><line style="stroke:#000000;stroke-width:0.5;" x1="431.63" x2="646.3733" y1="106.014" y2="106.014"/></g><!--class Einrichtungskontakt--><g id="elem_Einrichtungskontakt"><rect codeLine="28" fill="#90EE90" height="61.412" id="Einrichtungskontakt" rx="2.5" ry="2.5" style="stroke:#000000;stroke-width:0.5;" width="164.5235" x="29.74" y="616.602"/><ellipse cx="44.74" cy="639.308" fill="#ADD1B2" rx="11" ry="11" style="stroke:#181818;stroke-width:1;"/><path d="M44.2088,646.2299 Q42.4588,646.2299 41.3181,645.4955 Q40.1931,644.7455 39.6306,643.4017 Q39.0838,642.0424 39.0838,640.2455 Q39.0838,638.2142 39.74,636.7611 Q40.3963,635.308 41.6775,634.5267 Q42.9588,633.7455 44.8338,633.7455 Q45.7244,633.7455 46.3963,633.933 Q47.0681,634.1049 47.7556,634.4486 L46.9431,636.4642 Q46.3181,636.1517 45.7713,636.0267 Q45.24,635.9017 44.7556,635.9017 Q43.5838,635.9017 42.8806,636.433 Q42.1775,636.9642 41.8806,637.9174 Q41.5838,638.8705 41.5838,640.1361 Q41.5838,642.1517 42.3025,643.1205 Q43.0213,644.0736 44.615,644.0736 Q45.2088,644.0736 45.8338,643.9174 Q46.4588,643.7611 47.2869,643.3861 L47.2869,645.6049 Q46.5525,645.9174 45.7556,646.0736 Q44.9744,646.2299 44.2088,646.2299 Z " fill="#000000"/><text fill="#000000" font-family="sans-serif" font-size="12" font-style="italic" lengthAdjust="spacing" textLength="65.4004" x="92.3015" y="634.4301">&#171;Encounter&#187;</text><text fill="#000000" font-family="sans-serif" font-size="14" lengthAdjust="spacing" textLength="132.5235" x="58.74" y="652.912">Einrichtungskontakt</text><line style="stroke:#000000;stroke-width:0.5;" x1="30.74" x2="193.2635" y1="662.014" y2="662.014"/><line style="stroke:#000000;stroke-width:0.5;" x1="30.74" x2="193.2635" y1="670.014" y2="670.014"/></g><!--class Abteilungskontakt--><g id="elem_Abteilungskontakt"><rect codeLine="29" fill="#90EE90" height="61.412" id="Abteilungskontakt" rx="2.5" ry="2.5" style="stroke:#000000;stroke-width:0.5;" width="152.3855" x="46.81" y="790.382"/><ellipse cx="61.81" cy="813.088" fill="#ADD1B2" rx="11" ry="11" style="stroke:#181818;stroke-width:1;"/><path d="M61.2788,820.0099 Q59.5288,820.0099 58.3881,819.2755 Q57.2631,818.5255 56.7006,817.1817 Q56.1538,815.8224 56.1538,814.0255 Q56.1538,811.9942 56.81,810.5411 Q57.4663,809.088 58.7475,808.3067 Q60.0288,807.5255 61.9038,807.5255 Q62.7944,807.5255 63.4663,807.713 Q64.1381,807.8849 64.8256,808.2286 L64.0131,810.2442 Q63.3881,809.9317 62.8413,809.8067 Q62.31,809.6817 61.8256,809.6817 Q60.6538,809.6817 59.9506,810.213 Q59.2475,810.7442 58.9506,811.6974 Q58.6538,812.6505 58.6538,813.9161 Q58.6538,815.9317 59.3725,816.9005 Q60.0913,817.8536 61.685,817.8536 Q62.2788,817.8536 62.9038,817.6974 Q63.5288,817.5411 64.3569,817.1661 L64.3569,819.3849 Q63.6225,819.6974 62.8256,819.8536 Q62.0444,820.0099 61.2788,820.0099 Z " fill="#000000"/><text fill="#000000" font-family="sans-serif" font-size="12" font-style="italic" lengthAdjust="spacing" textLength="65.4004" x="103.3026" y="808.2101">&#171;Encounter&#187;</text><text fill="#000000" font-family="sans-serif" font-size="14" lengthAdjust="spacing" textLength="120.3855" x="75.81" y="826.692">Abteilungskontakt</text><line style="stroke:#000000;stroke-width:0.5;" x1="47.81" x2="198.1955" y1="835.794" y2="835.794"/><line style="stroke:#000000;stroke-width:0.5;" x1="47.81" x2="198.1955" y1="843.794" y2="843.794"/></g><!--class Versorgungsstellenkontakt--><g id="elem_Versorgungsstellenkontakt"><rect codeLine="30" fill="#90EE90" height="61.412" id="Versorgungsstellenkontakt" rx="2.5" ry="2.5" style="stroke:#000000;stroke-width:0.5;" width="209.7293" x="30.14" y="951.792"/><ellipse cx="45.14" cy="974.498" fill="#ADD1B2" rx="11" ry="11" style="stroke:#181818;stroke-width:1;"/><path d="M44.6088,981.4199 Q42.8588,981.4199 41.7181,980.6855 Q40.5931,979.9355 40.0306,978.5917 Q39.4838,977.2324 39.4838,975.4355 Q39.4838,973.4042 40.14,971.9511 Q40.7963,970.498 42.0775,969.7167 Q43.3588,968.9355 45.2338,968.9355 Q46.1244,968.9355 46.7963,969.123 Q47.4681,969.2949 48.1556,969.6386 L47.3431,971.6542 Q46.7181,971.3417 46.1713,971.2167 Q45.64,971.0917 45.1556,971.0917 Q43.9838,971.0917 43.2806,971.623 Q42.5775,972.1542 42.2806,973.1074 Q41.9838,974.0605 41.9838,975.3261 Q41.9838,977.3417 42.7025,978.3105 Q43.4213,979.2636 45.015,979.2636 Q45.6088,979.2636 46.2338,979.1074 Q46.8588,978.9511 47.6869,978.5761 L47.6869,980.7949 Q46.9525,981.1074 46.1556,981.2636 Q45.3744,981.4199 44.6088,981.4199 Z " fill="#000000"/><text fill="#000000" font-family="sans-serif" font-size="12" font-style="italic" lengthAdjust="spacing" textLength="65.4004" x="115.3044" y="969.6201">&#171;Encounter&#187;</text><text fill="#000000" font-family="sans-serif" font-size="14" lengthAdjust="spacing" textLength="177.7293" x="59.14" y="988.102">Versorgungsstellenkontakt</text><line style="stroke:#000000;stroke-width:0.5;" x1="31.14" x2="238.8693" y1="997.204" y2="997.204"/><line style="stroke:#000000;stroke-width:0.5;" x1="31.14" x2="238.8693" y1="1005.204" y2="1005.204"/></g><!--class Dokument--><g id="elem_Dokument"><rect codeLine="34" fill="#D3D3D3" height="290.227" id="Dokument" rx="2.5" ry="2.5" style="stroke:#000000;stroke-width:0.5;" width="359.9967" x="569" y="214.012"/><ellipse cx="687.8399" cy="236.718" fill="#ADD1B2" rx="11" ry="11" style="stroke:#181818;stroke-width:1;"/><path d="M687.3087,243.6399 Q685.5587,243.6399 684.4181,242.9055 Q683.2931,242.1555 682.7306,240.8117 Q682.1837,239.4524 682.1837,237.6555 Q682.1837,235.6242 682.8399,234.1711 Q683.4962,232.718 684.7774,231.9367 Q686.0587,231.1555 687.9337,231.1555 Q688.8243,231.1555 689.4962,231.343 Q690.1681,231.5149 690.8556,231.8586 L690.0431,233.8742 Q689.4181,233.5617 688.8712,233.4367 Q688.3399,233.3117 687.8556,233.3117 Q686.6837,233.3117 685.9806,233.843 Q685.2774,234.3742 684.9806,235.3274 Q684.6837,236.2805 684.6837,237.5461 Q684.6837,239.5617 685.4024,240.5305 Q686.1212,241.4836 687.7149,241.4836 Q688.3087,241.4836 688.9337,241.3274 Q689.5587,241.1711 690.3868,240.7961 L690.3868,243.0149 Q689.6524,243.3274 688.8556,243.4836 Q688.0743,243.6399 687.3087,243.6399 Z " fill="#000000"/><text fill="#000000" font-family="sans-serif" font-size="12" font-style="italic" lengthAdjust="spacing" textLength="117.8168" x="706.3399" y="231.8401">&#171;DocumentReference&#187;</text><text fill="#000000" font-family="sans-serif" font-size="14" lengthAdjust="spacing" textLength="69.5097" x="730.4935" y="250.322">Dokument</text><line style="stroke:#000000;stroke-width:0.5;" x1="570" x2="927.9967" y1="259.424" y2="259.424"/><ellipse cx="580" cy="274.458" fill="none" rx="3" ry="3" style="stroke:#038048;stroke-width:1;"/><text fill="#000000" font-family="sans-serif" font-size="14" lengthAdjust="spacing" textLength="230.9291" x="589" y="278.3899">Masteridentifikator: Identifier [0..1]</text><ellipse cx="580" cy="293.5259" fill="none" rx="3" ry="3" style="stroke:#038048;stroke-width:1;"/><text fill="#000000" font-family="sans-serif" font-size="14" lengthAdjust="spacing" textLength="242.9691" x="589" y="297.4579">Businessidentifikator: Identifier [0..1]</text><ellipse cx="580" cy="312.5938" fill="none" rx="3" ry="3" style="stroke:#038048;stroke-width:1;"/><text fill="#000000" font-family="sans-serif" font-size="14" lengthAdjust="spacing" textLength="256.843" x="589" y="316.5258">Dokumentenreferenzstatus: code [1..1]</text><ellipse cx="580" cy="331.6617" fill="none" rx="3" ry="3" style="stroke:#038048;stroke-width:1;"/><text fill="#000000" font-family="sans-serif" font-size="14" lengthAdjust="spacing" textLength="201.5432" x="589" y="335.5937">Dokumentenstatus: code [0..1]</text><ellipse cx="580" cy="350.7296" fill="none" rx="3" ry="3" style="stroke:#038048;stroke-width:1;"/><text fill="#000000" font-family="sans-serif" font-size="14" lengthAdjust="spacing" textLength="182.3213" x="589" y="354.6616">Dokumententyp: code [0..1]</text><ellipse cx="580" cy="369.7976" fill="none" rx="3" ry="3" style="stroke:#038048;stroke-width:1;"/><text fill="#000000" font-family="sans-serif" font-size="14" lengthAdjust="spacing" textLength="223.8731" x="589" y="373.7295">Dokumentenkategorie: code [0..*]</text><ellipse cx="580" cy="388.8655" fill="none" rx="3" ry="3" style="stroke:#038048;stroke-width:1;"/><text fill="#000000" font-family="sans-serif" font-size="14" lengthAdjust="spacing" textLength="151.0314" x="589" y="392.7974">Patient: Identifier [0..1]</text><ellipse cx="580" cy="407.9334" fill="none" rx="3" ry="3" style="stroke:#038048;stroke-width:1;"/><text fill="#000000" font-family="sans-serif" font-size="14" lengthAdjust="spacing" textLength="173.0673" x="589" y="411.8654">Beschreibung: string [0..1]</text><ellipse cx="580" cy="427.0013" fill="none" rx="3" ry="3" style="stroke:#038048;stroke-width:1;"/><text fill="#000000" font-family="sans-serif" font-size="14" lengthAdjust="spacing" textLength="180.5573" x="589" y="430.9333">Sicherheitsstufe: code [0..*]</text><ellipse cx="580" cy="446.0692" fill="none" rx="3" ry="3" style="stroke:#038048;stroke-width:1;"/><text fill="#000000" font-family="sans-serif" font-size="14" lengthAdjust="spacing" textLength="333.9967" x="589" y="450.0012">Dokumentenbeziehungen: BackboneElement [0..*]</text><ellipse cx="580" cy="465.1371" fill="none" rx="3" ry="3" style="stroke:#038048;stroke-width:1;"/><text fill="#000000" font-family="sans-serif" font-size="14" lengthAdjust="spacing" textLength="213.5972" x="589" y="469.0691">Anhang: BackboneElement [1..*]</text><ellipse cx="580" cy="484.2051" fill="none" rx="3" ry="3" style="stroke:#038048;stroke-width:1;"/><text fill="#000000" font-family="sans-serif" font-size="14" lengthAdjust="spacing" textLength="213.7232" x="589" y="488.137">Kontext: BackboneElement [0..1]</text><line style="stroke:#000000;stroke-width:0.5;" x1="570" x2="927.9967" y1="496.239" y2="496.239"/></g><!--class Dokumentenbeziehungen--><g id="elem_Dokumentenbeziehungen"><rect codeLine="58" fill="#D3D3D3" height="86.1358" id="Dokumentenbeziehungen" rx="2.5" ry="2.5" style="stroke:#000000;stroke-width:0.5;" width="262.095" x="617.95" y="604.242"/><ellipse cx="659.1984" cy="620.242" fill="#ADD1B2" rx="11" ry="11" style="stroke:#181818;stroke-width:1;"/><path d="M658.6671,627.1639 Q656.9171,627.1639 655.7765,626.4295 Q654.6515,625.6795 654.089,624.3357 Q653.5421,622.9764 653.5421,621.1795 Q653.5421,619.1482 654.1984,617.6951 Q654.8546,616.242 656.1359,615.4607 Q657.4171,614.6795 659.2921,614.6795 Q660.1828,614.6795 660.8546,614.867 Q661.5265,615.0389 662.214,615.3826 L661.4015,617.3982 Q660.7765,617.0857 660.2296,616.9607 Q659.6984,616.8357 659.214,616.8357 Q658.0421,616.8357 657.339,617.367 Q656.6359,617.8982 656.339,618.8514 Q656.0421,619.8045 656.0421,621.0701 Q656.0421,623.0857 656.7609,624.0545 Q657.4796,625.0076 659.0734,625.0076 Q659.6671,625.0076 660.2921,624.8514 Q660.9171,624.6951 661.7453,624.3201 L661.7453,626.5389 Q661.0109,626.8514 660.214,627.0076 Q659.4328,627.1639 658.6671,627.1639 Z " fill="#000000"/><text fill="#000000" font-family="sans-serif" font-size="14" lengthAdjust="spacing" textLength="171.7653" x="679.0314" y="625.674">Dokumentenbeziehungen</text><line style="stroke:#000000;stroke-width:0.5;" x1="618.95" x2="879.045" y1="636.242" y2="636.242"/><ellipse cx="628.95" cy="651.2759" fill="none" rx="3" ry="3" style="stroke:#038048;stroke-width:1;"/><text fill="#000000" font-family="sans-serif" font-size="14" lengthAdjust="spacing" textLength="172.6193" x="637.95" y="655.2079">Beziehungstyp: code [1..1]</text><ellipse cx="628.95" cy="670.3439" fill="none" rx="3" ry="3" style="stroke:#038048;stroke-width:1;"/><text fill="#000000" font-family="sans-serif" font-size="14" lengthAdjust="spacing" textLength="236.095" x="637.95" y="674.2758">Beziehungsreferenz: Identifier [1..1]</text><line style="stroke:#000000;stroke-width:0.5;" x1="618.95" x2="879.045" y1="682.3778" y2="682.3778"/></g><!--class Kontext--><g id="elem_Kontext"><rect codeLine="63" fill="#D3D3D3" height="143.3396" id="Kontext" rx="2.5" ry="2.5" style="stroke:#000000;stroke-width:0.5;" width="345.4088" x="123.3" y="287.462"/><ellipse cx="266.1555" cy="303.462" fill="#ADD1B2" rx="11" ry="11" style="stroke:#181818;stroke-width:1;"/><path d="M265.6242,310.3839 Q263.8742,310.3839 262.7336,309.6495 Q261.6086,308.8995 261.0461,307.5557 Q260.4992,306.1964 260.4992,304.3995 Q260.4992,302.3682 261.1555,300.9151 Q261.8117,299.462 263.093,298.6807 Q264.3742,297.8995 266.2492,297.8995 Q267.1399,297.8995 267.8117,298.087 Q268.4836,298.2589 269.1711,298.6026 L268.3586,300.6182 Q267.7336,300.3057 267.1867,300.1807 Q266.6555,300.0557 266.1711,300.0557 Q264.9992,300.0557 264.2961,300.587 Q263.593,301.1182 263.2961,302.0714 Q262.9992,303.0245 262.9992,304.2901 Q262.9992,306.3057 263.718,307.2745 Q264.4367,308.2276 266.0305,308.2276 Q266.6242,308.2276 267.2492,308.0714 Q267.8742,307.9151 268.7024,307.5401 L268.7024,309.7589 Q267.968,310.0714 267.1711,310.2276 Q266.3899,310.3839 265.6242,310.3839 Z " fill="#000000"/><text fill="#000000" font-family="sans-serif" font-size="14" lengthAdjust="spacing" textLength="51.1978" x="286.6555" y="308.894">Kontext</text><line style="stroke:#000000;stroke-width:0.5;" x1="124.3" x2="467.7088" y1="319.462" y2="319.462"/><ellipse cx="134.3" cy="334.4959" fill="none" rx="3" ry="3" style="stroke:#038048;stroke-width:1;"/><text fill="#000000" font-family="sans-serif" font-size="14" lengthAdjust="spacing" textLength="319.4088" x="143.3" y="338.4279">Gesundheitseinrichtungskontakt: Identifier [0..*]</text><ellipse cx="134.3" cy="353.5639" fill="none" rx="3" ry="3" style="stroke:#038048;stroke-width:1;"/><text fill="#000000" font-family="sans-serif" font-size="14" lengthAdjust="spacing" textLength="131.5435" x="143.3" y="357.4958">Vorgang: code [0..*]</text><ellipse cx="134.3" cy="372.6318" fill="none" rx="3" ry="3" style="stroke:#038048;stroke-width:1;"/><text fill="#000000" font-family="sans-serif" font-size="14" lengthAdjust="spacing" textLength="147.6294" x="143.3" y="376.5638">Fachgebiet: code [0..1]</text><ellipse cx="134.3" cy="391.6997" fill="none" rx="3" ry="3" style="stroke:#038048;stroke-width:1;"/><text fill="#000000" font-family="sans-serif" font-size="14" lengthAdjust="spacing" textLength="254.981" x="143.3" y="395.6317">Dokumentationszeitraum: Period [0..1]</text><ellipse cx="134.3" cy="410.7676" fill="none" rx="3" ry="3" style="stroke:#038048;stroke-width:1;"/><text fill="#000000" font-family="sans-serif" font-size="14" lengthAdjust="spacing" textLength="176.6373" x="143.3" y="414.6996">Einrichtungsart: code [0..1]</text><line style="stroke:#000000;stroke-width:0.5;" x1="124.3" x2="467.7088" y1="422.8016" y2="422.8016"/></g><!--class Anhang--><g id="elem_Anhang"><rect codeLine="74" fill="#D3D3D3" height="143.3396" id="Anhang" rx="2.5" ry="2.5" style="stroke:#000000;stroke-width:0.5;" width="247.8851" x="1029.06" y="287.462"/><ellipse cx="1123.0697" cy="303.462" fill="#ADD1B2" rx="11" ry="11" style="stroke:#181818;stroke-width:1;"/><path d="M1122.5384,310.3839 Q1120.7884,310.3839 1119.6478,309.6495 Q1118.5228,308.8995 1117.9603,307.5557 Q1117.4134,306.1964 1117.4134,304.3995 Q1117.4134,302.3682 1118.0697,300.9151 Q1118.7259,299.462 1120.0072,298.6807 Q1121.2884,297.8995 1123.1634,297.8995 Q1124.054,297.8995 1124.7259,298.087 Q1125.3978,298.2589 1126.0853,298.6026 L1125.2728,300.6182 Q1124.6478,300.3057 1124.1009,300.1807 Q1123.5697,300.0557 1123.0853,300.0557 Q1121.9134,300.0557 1121.2103,300.587 Q1120.5072,301.1182 1120.2103,302.0714 Q1119.9134,303.0245 1119.9134,304.2901 Q1119.9134,306.3057 1120.6322,307.2745 Q1121.3509,308.2276 1122.9447,308.2276 Q1123.5384,308.2276 1124.1634,308.0714 Q1124.7884,307.9151 1125.6165,307.5401 L1125.6165,309.7589 Q1124.8822,310.0714 1124.0853,310.2276 Q1123.304,310.3839 1122.5384,310.3839 Z " fill="#000000"/><text fill="#000000" font-family="sans-serif" font-size="14" lengthAdjust="spacing" textLength="51.3658" x="1143.5697" y="308.894">Anhang</text><line style="stroke:#000000;stroke-width:0.5;" x1="1030.06" x2="1275.9451" y1="319.462" y2="319.462"/><ellipse cx="1040.06" cy="334.4959" fill="none" rx="3" ry="3" style="stroke:#038048;stroke-width:1;"/><text fill="#000000" font-family="sans-serif" font-size="14" lengthAdjust="spacing" textLength="128.6595" x="1049.06" y="338.4279">Sprache: code [0..1]</text><ellipse cx="1040.06" cy="353.5639" fill="none" rx="3" ry="3" style="stroke:#038048;stroke-width:1;"/><text fill="#000000" font-family="sans-serif" font-size="14" lengthAdjust="spacing" textLength="221.8851" x="1049.06" y="357.4958">Erstellungsdatum: dateTime [0..1]</text><ellipse cx="1040.06" cy="372.6318" fill="none" rx="3" ry="3" style="stroke:#038048;stroke-width:1;"/><text fill="#000000" font-family="sans-serif" font-size="14" lengthAdjust="spacing" textLength="172.6613" x="1049.06" y="376.5638">Daten: base64Binary [0..1]</text><ellipse cx="1040.06" cy="391.6997" fill="none" rx="3" ry="3" style="stroke:#038048;stroke-width:1;"/><text fill="#000000" font-family="sans-serif" font-size="14" lengthAdjust="spacing" textLength="187.8653" x="1049.06" y="395.6317">DokumentenUrl: string [0..1]</text><ellipse cx="1040.06" cy="410.7676" fill="none" rx="3" ry="3" style="stroke:#038048;stroke-width:1;"/><text fill="#000000" font-family="sans-serif" font-size="14" lengthAdjust="spacing" textLength="206.5832" x="1049.06" y="414.6996">Dokumentenformat: code [0..1]</text><line style="stroke:#000000;stroke-width:0.5;" x1="1030.06" x2="1275.9451" y1="422.8016" y2="422.8016"/></g><!--reverse link Dokument to Anhang--><g id="link_Dokument_Anhang"><path codeLine="87" d="M941.44,359.132 C974.97,359.132 997.31,359.132 1028.69,359.132 " fill="none" id="Dokument-backto-Anhang" style="stroke:#000000;stroke-width:1;"/><polygon fill="#000000" points="929.44,359.132,935.44,363.132,941.44,359.132,935.44,355.132,929.44,359.132" style="stroke:#000000;stroke-width:1;"/><polygon fill="#000000" points="946.57,368.985,937.5249,366.0461,937.5249,371.9239,946.57,368.985" style="stroke:#000000;stroke-width:1;"/><text fill="#000000" font-family="sans-serif" font-size="13" lengthAdjust="spacing" textLength="70.4601" x="950.57" y="374.029">attachment</text><text fill="#000000" font-family="sans-serif" font-size="13" lengthAdjust="spacing" textLength="21.567" x="999.4921" y="355.5326">1..*</text></g><!--link Kontext to Dokument--><g id="link_Kontext_Dokument"><path codeLine="88" d="M469.2,359.132 C501.79,359.132 523.95,359.132 556.76,359.132 " fill="none" id="Kontext-to-Dokument" style="stroke:#000000;stroke-width:1;"/><polygon fill="#000000" points="568.76,359.132,562.76,355.132,556.76,359.132,562.76,363.132,568.76,359.132" style="stroke:#000000;stroke-width:1;"/><polygon fill="#000000" points="503.98,368.985,513.0251,371.9239,513.0251,366.0461,503.98,368.985" style="stroke:#000000;stroke-width:1;"/><text fill="#000000" font-family="sans-serif" font-size="13" lengthAdjust="spacing" textLength="45.734" x="517.98" y="374.029">context</text><text fill="#000000" font-family="sans-serif" font-size="13" lengthAdjust="spacing" textLength="21.84" x="476.9674" y="355.6853">0..1</text></g><!--reverse link Dokument to Dokumentenbeziehungen--><g id="link_Dokument_Dokumentenbeziehungen"><path codeLine="89" d="M705.32,516.482 C705.32,552.852 705.32,577.122 705.32,604.002 " fill="none" id="Dokument-backto-Dokumentenbeziehungen" style="stroke:#000000;stroke-width:1;"/><polygon fill="#000000" points="705.32,504.482,701.32,510.482,705.32,516.482,709.32,510.482,705.32,504.482" style="stroke:#000000;stroke-width:1;"/><polygon fill="#000000" points="639.32,550.095,642.2589,541.0499,636.3811,541.0499,639.32,550.095" style="stroke:#000000;stroke-width:1;"/><text fill="#000000" font-family="sans-serif" font-size="13" lengthAdjust="spacing" textLength="56.693" x="648.32" y="550.139">relatesTo</text><text fill="#000000" font-family="sans-serif" font-size="13" lengthAdjust="spacing" textLength="21.567" x="675.3938" y="592.3768">0..*</text></g><!--link Dokumentenbeziehungen to Dokument--><g id="link_Dokumentenbeziehungen_Dokument"><path codeLine="91" d="M792.68,603.852 C792.68,577.042 792.68,540.952 792.68,504.732 " fill="none" id="Dokumentenbeziehungen-Dokument" style="stroke:#000000;stroke-width:1;"/><polygon fill="#000000" points="745.68,540.145,742.7411,549.1901,748.6189,549.1901,745.68,540.145" style="stroke:#000000;stroke-width:1;"/><text fill="#000000" font-family="sans-serif" font-size="13" lengthAdjust="spacing" textLength="37.375" x="754.68" y="550.189">target</text></g><!--link Person to Dokument--><g id="link_Person_Dokument"><path codeLine="90" d="M749,138.2572 C749,139.0166 749,139.7815 749,140.5515 C749,143.6314 749,146.7942 749,150.0289 C749,156.4984 749,163.256 749,170.2153 C749,184.1339 749,186.8595 749,201.702 " fill="none" id="Person-to-Dokument" style="stroke:#000000;stroke-width:1;"/><polygon fill="none" points="749,213.702,753,207.702,749,201.702,745,207.702,749,213.702" style="stroke:#000000;stroke-width:1;"/><polygon fill="#000000" points="696,135.385,693.0611,144.4301,698.9389,144.4301,696,135.385" style="stroke:#000000;stroke-width:1;"/><text fill="#000000" font-family="sans-serif" font-size="13" lengthAdjust="spacing" textLength="43.875" x="705" y="145.429">subject</text><text fill="#000000" font-family="sans-serif" font-size="13" lengthAdjust="spacing" textLength="21.84" x="728" y="99.269">0..1</text></g><!--reverse link Kontext to Fall--><g id="link_Kontext_Fall"><path codeLine="92" d="M296,443.102 C296,482.782 296,520.2895 296,561.9145 C296,564.516 296,567.0868 296,569.6225 C296,569.9394 296,595.3238 296,595.6396 " fill="none" id="Kontext-backto-Fall" style="stroke:#000000;stroke-width:1;"/><polygon fill="none" points="296,431.102,292,437.102,296,443.102,300,437.102,296,431.102" style="stroke:#000000;stroke-width:1;"/><polygon fill="#000000" points="224,534.125,226.9389,525.0799,221.0611,525.0799,224,534.125" style="stroke:#000000;stroke-width:1;"/><text fill="#000000" font-family="sans-serif" font-size="13" lengthAdjust="spacing" textLength="62.9331" x="233" y="534.169">encounter</text><text fill="#000000" font-family="sans-serif" font-size="13" lengthAdjust="spacing" textLength="21.567" x="275" y="642.329">0..*</text></g><!--link Einrichtungskontakt to Abteilungskontakt--><g id="link_Einrichtungskontakt_Abteilungskontakt"><path codeLine="93" d="M120.53,678.382 C120.53,709.912 120.53,758.452 120.53,789.992 " fill="none" id="Einrichtungskontakt-Abteilungskontakt" style="stroke:#000000;stroke-width:1;"/><text fill="#000000" font-family="sans-serif" font-size="13" lengthAdjust="spacing" textLength="21.567" x="96.9128" y="778.7951">0..*</text></g><!--link Abteilungskontakt to Versorgungsstellenkontakt--><g id="link_Abteilungskontakt_Versorgungsstellenkontakt"><path codeLine="94" d="M123,852.202 C123,880.792 123,922.922 123,951.472 " fill="none" id="Abteilungskontakt-Versorgungsstellenkontakt" style="stroke:#000000;stroke-width:1;"/><text fill="#000000" font-family="sans-serif" font-size="13" lengthAdjust="spacing" textLength="21.567" x="97.1391" y="939.7999">0..*</text></g><rect fill="none" height="95.7196" id="_legend" rx="7.5" ry="7.5" style="stroke:#000000;stroke-width:1;" width="286.3449" x="971.6002" y="1055.202"/><text fill="#000000" font-family="sans-serif" font-size="18" font-weight="bold" lengthAdjust="spacing" textLength="76.7515" x="976.6002" y="1079.4439">Legende</text><rect fill="#D3D3D3" height="19.0679" style="stroke:none;stroke-width:1;" width="21.8399" x="976.6002" y="1086.7178"/><text fill="#000000" font-family="sans-serif" font-size="14" lengthAdjust="spacing" textLength="21.8399" x="976.6002" y="1101.6838">&#160;&#160;&#160;&#160;&#160;&#160;</text><text fill="#000000" font-family="sans-serif" font-size="14" lengthAdjust="spacing" textLength="247.2251" x="1002.0801" y="1101.6838">Abgeleitet aus FHIR-Kernspezifikation</text><rect fill="#90EE90" height="19.0679" style="stroke:none;stroke-width:1;" width="21.8399" x="976.6002" y="1105.7857"/><text fill="#000000" font-family="sans-serif" font-size="14" lengthAdjust="spacing" textLength="18.1999" x="976.6002" y="1120.7517">&#160;&#160;&#160;&#160;&#160;</text><text fill="#000000" font-family="sans-serif" font-size="14" lengthAdjust="spacing" textLength="98.9516" x="1002.0801" y="1120.7517">MII KDS-Modul</text><rect fill="#FFFFE0" height="19.0679" style="stroke:none;stroke-width:1;" width="21.8399" x="976.6002" y="1124.8537"/><text fill="#000000" font-family="sans-serif" font-size="14" lengthAdjust="spacing" textLength="14.5599" x="976.6002" y="1139.8196">&#160;&#160;&#160;&#160;</text><text fill="#000000" font-family="sans-serif" font-size="14" lengthAdjust="spacing" textLength="80.7237" x="1002.0801" y="1139.8196">Erweiterung</text><line style="stroke:#000000;stroke-width:1;" x1="976.6002" x2="1252.9451" y1="1086.7178" y2="1086.7178"/><line style="stroke:#000000;stroke-width:1;" x1="976.6002" x2="1252.9451" y1="1105.7857" y2="1105.7857"/><line style="stroke:#000000;stroke-width:1;" x1="976.6002" x2="1252.9451" y1="1124.8537" y2="1124.8537"/><line style="stroke:#000000;stroke-width:1;" x1="976.6002" x2="1252.9451" y1="1143.9216" y2="1143.9216"/><line style="stroke:#000000;stroke-width:1;" x1="976.6002" x2="976.6002" y1="1086.7178" y2="1143.9216"/><line style="stroke:#000000;stroke-width:1;" x1="998.4401" x2="998.4401" y1="1086.7178" y2="1143.9216"/><line style="stroke:#000000;stroke-width:1;" x1="1252.9451" x2="1252.9451" y1="1086.7178" y2="1143.9216"/><!--SRC=[hLPTRzis57tthxXm7x9sS1i3mnu4pq3iE9tXP0ZYhCDGz86IhYNED6cGL3CdwN_VfIJB-epTT7v9A9vxxWTv3-yPJ9dyoWpSCiqsQ56RdbbpkNLBkEOIxMwBeBIDLMdZ3nMYmIqCpyzBN- -ON3U_NcE4CfomO1rfbSXmgeJIyEQlc5iimQQ26TD0NVCejXyrspMGIeUeSzH4a5qTSQMaxTY_q5ezTEmjOnQg1ouZM35XiDSJQVpWAslL1hGBg0Vq-otF3DFLy-WGwnZItpDS-14Af3mjiCJ0rU_pky42jJHRVEGhlcQMAmdFDG94ESu9RkPpM5mk1pSgJ4GD-3SAeHx66N2c7vmVdL3SppsAAekwrpkhSTpI2IlPsrBIBC9y2INNy9Hw2Lm9eNzB8QAq7fTz68torNXSDcY7mm1k3IQXahiDDnorxIRurWppYWbH1EaMZH0pZpCkDGzYItcRDHquMrjoCvC1tI4gHoFIpEh2jyZ5zzbySfNIaJCobagFyhXjcjZ2cTCYexbKwsH39I2hInMa_zxX2ZNA0CdwYGm0VeQd5KSHVeCRHiuq3mcMNHYbFPZdIzGmygb6tfjTTXS-dxz_FuGFC5_oXGT3MdmPVN28SNf8fzEcH5zgHfF4a1uOyvrc-unHwYpHHsEPJOm70Qa8V1w-Q5F5Plnd7LYIgXpuohAqKHtnIKN0I6cEdPxV5PxFJ_5S9qmfwlxtVGR5tVaf__JsjRaNbCtphFgUe0bYZTodLl30MEsqyfLEMxbQlIwfor7797BKVicAgZEbwZ1Vu5HH-blxOkM7heRj8JI9osNlEYMV11nZYXgb1-xLyfN4cS2qjLkFR2vZ9cmJN0jxM0lxKBdJw5A2UjmN17O5xW1NcHSaQ_ZlyKXFFUDElloSIIIhqbYfRluSbQzClcTAFTgc8GVWNdUgTtjOzPw7sL3WZsXe74dl1pOVct875g_0szUgm35VjTPidFCdUg3IW-vMZYiMn17w7Eqf7NJI0PSfovBPtZlfp6CUAKVDaetd9X2kmlQcBx_kJFz_4JTuos4NDoBhciQ5M6ur9Om_zj9KILgJhp9dZ3ETpXukxf3UHIeV_S5xljdtG4U-BvYTwlg6qFUrZkjuouYRLD5d1d_zPS8bqxjZay6VMhmi_mVeIkaDowx23pmyJRxQ5JWxw0VDRiNKzcu0VIUQ_K9JcRLqakdck8mJX7Hi_OC01hd4L70PZ0Wx7XUDWkffxbNPJ0sIWZuRuQbyYVyF1cNsgf2If_s61vRf21rsBtjg41QHk7dR0zpB6Q7Qnkn3v8rnkjSSi0_epa6wzny0]--></g></svg>